<?xml version="1.0" encoding="utf-8"?>
<!-- Generator: Adobe Illustrator 21.1.0, SVG Export Plug-In . SVG Version: 6.00 Build 0)  -->
<svg version="1.1" id="Camada_1" xmlns="http://www.w3.org/2000/svg" xmlns:xlink="http://www.w3.org/1999/xlink" x="0px" y="0px"
	 viewBox="0 0 980 570" style="enable-background:new 0 0 980 570;" xml:space="preserve">
<style type="text/css">
	.st0{fill:none;}
	.st1{font-family:'RobotoSlab-Bold';}
	.st2{font-size:46.7804px;}
	.st3{font-size:41.4341px;}
	.st4{fill:#E84A5E;}
	.st5{font-family:'RobotoSlab-Regular';}
	.st6{font-size:30.0731px;}
	.st7{clip-path:url(#SVGID_2_);}
	.st8{fill:#FFFFFF;}
	.st9{fill:#EDA677;}
	.st10{fill-rule:evenodd;clip-rule:evenodd;fill:#1B384C;}
	.st11{fill-rule:evenodd;clip-rule:evenodd;fill:#DDDBDB;}
	.st12{fill-rule:evenodd;clip-rule:evenodd;fill:#E9E9F0;}
	.st13{fill:#0E2A30;}
	.st14{fill:#1B384C;}
	.st15{opacity:0.2;fill-rule:evenodd;clip-rule:evenodd;fill:#FFFFFF;}
</style>
<rect x="85.7" y="104" class="st0" width="688.6" height="125.8"/>
<text transform="matrix(1 0 0 1 85.6753 139.6133)"><tspan x="0" y="0" class="st1 st2">#ConsultaCidadã</tspan><tspan x="0" y="57.5" class="st1 st3">sobre a Confiança no Legislativo</tspan></text>
<rect x="350" y="249.5" class="st0" width="587" height="90.5"/>
<text transform="matrix(1 0 0 1 350 272.4253)"><tspan x="0" y="0" class="st4 st5 st6">Diga o que você pensa </tspan><tspan x="0" y="40.1" class="st4 st5 st6">sobre a Câmara e o Senado</tspan></text>
<g>
	<defs>
		<rect id="SVGID_1_" x="0" y="-11" width="980" height="581"/>
	</defs>
	<clipPath id="SVGID_2_">
		<use xlink:href="#SVGID_1_"  style="overflow:visible;"/>
	</clipPath>
	<g class="st7">
		
			<ellipse transform="matrix(0.6383 -0.7698 0.7698 0.6383 -223.1975 308.508)" class="st8" cx="216.7" cy="391.8" rx="133" ry="133"/>
		<path class="st9" d="M196.9,486.2c1.9-11.4-9.3-23.5,1.3-22.8c-0.3,0,4.4-0.2,5.7-0.4c0.5-0.1,0.9-0.1,1.2-0.2
			c0.2-0.1,0.5-0.2,1-0.4c0.7-0.3,4-2.1,2.7-1.2c1-0.7,2-1.3,3-2.1c0.5-0.4,0.8-0.7,1-0.8c0.5-0.5,1-1,1.5-1.5
			c1.3-1.4,2.5-2.7,3.7-4.1c2.6-3.1,5.2-6.3,7.8-9.4c3.4-4.2,7.5-6.3,11.6-6.9c-1.8-5.7-5.7-9.5-9-8.6l-1.2,0.3l-5.1,1.4l-0.3,0.1
			l-0.7-2.7l5.1-1.4l5.2-1.4l4.2-1.1c3.5-0.9,4.9-6.7,3.2-12.9c-1.7-6.2-5.8-10.4-9.3-9.5l-4.2,1.1l-5.2,1.4l-5.1,1.4l-0.7-2.7
			l23.3-6.3l0,0c0.2,0,0.4-0.1,0.6-0.1l30.6-8.3c5.6-1.5,8.8-7.7,7.1-13.9c-1.7-6.2-7.6-9.9-13.2-8.4l-30.6,8.3
			c-0.2,0.1-0.4,0.1-0.5,0.2l0,0l-67.4,18.2l-21.5,9.2l34.5-46.3c5.6-4.2,10.5-8.6,8.8-15.3c-1.8-6.6-8.6-10.5-15.2-8.8l-33.3,35
			c0,0-12.7,6.6-22.9,24.9l-4.7,19.8c-66.7,81.1-39.1,57.3-49.2,59.9l53.6,55.7c7.2-5.3,33-39.1,33-39.1c3,1.2,11.4,4.8,16.3,5.8
			c2.3,0.5,6.4,1,12.9-0.3C188.9,489.1,196.3,489.9,196.9,486.2z"/>
		<path class="st9" d="M315.5,384.4c-1.7-6.2-7.6-9.9-13.2-8.4l-30.6,8.3c-0.2,0.1-0.4,0.1-0.5,0.2l0,0l-67.4,18.2l-0.1-0.2
			c-0.1,0.2-0.2,0.4-0.4,0.6c-4.3,7.4-10.1,15.3-13,23.5c0,0,0,0,0,0c0,0,0,0.1,0.1,0.1c0.3-0.2,0.4,0.4,0.3,0.8
			c0,0.1,0,0.1,0.1,0.2c0.1,0.1,0.2,0.2,0.3,0.4c0.6,1,1.3,2,2,2.9c0,0.1,0.1,0.1,0.2,0.2c0,0,0,0,0,0c2-0.5,4.1-1,6.1-1.6
			c12.6-3.4,24.9-7.5,37.2-12c6.1-2.2,11.7-1.3,16.3,1.4c0.8-1.3,1.8-2.5,2.9-3.5l-1,0.3l-0.7-2.7l9.5-2.6c1.1-0.4,2.2-0.7,3.3-0.9
			l10.4-2.8l0,0c0.2,0,0.4-0.1,0.6-0.1l30.6-8.3C314,396.8,317.1,390.6,315.5,384.4z"/>
		<path class="st10" d="M203.5,493.1c-2.1,2.6-6,2.9-8.7,0.7l-74.4-61.7c-2.6-2.2-3-6.1-0.9-8.7l123.8-149.3c2.1-2.6,6-2.9,8.7-0.7
			l74.4,61.7c2.6,2.2,3,6.1,0.9,8.7L203.5,493.1z"/>
		<polygon class="st11" points="309,350.2 307,348.6 303.1,345.4 298.8,341.8 295.1,338.8 294.9,338.5 290,334.5 277.7,324.3 
			273.4,320.8 269.1,317.1 265,313.8 258.8,308.7 255,305.5 243,295.6 242.6,295.2 238.8,292 236.6,290.2 222.5,307.1 222.5,307.1 
			218.8,311.7 218.8,311.7 208.3,324.3 208.3,324.3 195.7,339.5 195.7,339.5 192.6,343.3 192.6,343.3 161.2,381 161.2,381 
			158.4,384.5 158.4,384.5 143.9,401.9 143.9,401.9 140.1,406.5 140.1,406.5 130.7,417.9 131,418.1 134.9,421.4 143.6,428.6 
			148.6,432.7 148.6,432.7 149.2,433.2 152.4,435.8 153,436.3 156.8,439.5 157.3,439.9 160.6,442.7 172.3,452.3 172.4,452.5 
			176.6,455.9 186.9,464.5 191.1,468 192.1,468.7 197.1,472.9 206.9,481.1 215.6,470.6 221.4,463.7 222.7,462 224.5,459.9 
			227.9,455.8 229.4,454 233.2,449.4 268.8,406.5 271.9,402.7 280.2,392.7 284.5,387.5 303.2,364.9 306.7,360.7 312.8,353.4 		"/>
		<polygon class="st12" points="238.1,288.3 238.1,288.4 238.1,288.4 237.4,289.2 236.6,290.1 236.6,290.1 236.4,290.4 236.4,290.4 
			234.5,292.7 234.5,292.7 234.3,293 234.3,293 233.4,294 233.4,294 233.1,294.3 233.1,294.3 232.5,295.1 232.4,295.3 308.6,358.4 
			314.3,351.5 		"/>
		<g>
			<polygon class="st8" points="23.5,655.4 152.6,508.7 57.6,429.8 -71.5,576.5 			"/>
			<path class="st13" d="M121.5,509.2c2.3,2.1,5.8,2,8-0.3c2.1-2.3,2-5.8-0.3-8c-2.3-2.1-5.8-2-8,0.3
				C119.1,503.5,119.2,507.1,121.5,509.2z"/>
			
				<rect x="55.3" y="436.5" transform="matrix(0.6387 -0.7694 0.7694 0.6387 -361.4795 239.4103)" class="st14" width="37.9" height="136.3"/>
		</g>
		
			<ellipse transform="matrix(0.6383 -0.7698 0.7698 0.6383 -292.6584 291.5782)" class="st15" cx="163.9" cy="457.2" rx="5.5" ry="5.5"/>
		
			<rect x="249.8" y="290.6" transform="matrix(0.6383 -0.7698 0.7698 0.6383 -143.4909 303.6428)" class="st10" width="3" height="27.8"/>
		
			<rect x="272.1" y="316.5" transform="matrix(0.6383 -0.7698 0.7698 0.6383 -149.6627 327.5176)" class="st10" width="3" height="13"/>
		<path class="st9" d="M243.7,465.4c-2,4.4-7.1,6.3-11.3,4.4l-19.4-9c-4.2-2-6-7.1-4-11.5l0,0c2-4.4,7.1-6.3,11.3-4.4l19.4,9
			C243.9,455.9,245.7,461,243.7,465.4L243.7,465.4z"/>
		<path class="st9" d="M142.5,454.6c1.3-0.9,2.5-1.9,3.7-2.9c0.3-0.8,11.5-12.9,5.3-35.6c-2.9-10.5-11.8-16.1-15.8-18.8L110.3,428
			L142.5,454.6z"/>
		<path class="st9" d="M272.4,427.2c-1.5,5.7-6.7,9.2-11.8,7.9l-23.2-6c-5-1.3-7.9-6.9-6.5-12.6l0,0c1.5-5.7,6.7-9.2,11.8-7.9
			l23.2,6C270.9,415.9,273.9,421.6,272.4,427.2L272.4,427.2z"/>
		<path class="st9" d="M256.4,449.4c-2.2,4.5-7.3,6.5-11.5,4.5l-19.3-9.3c-4.2-2-5.8-7.3-3.7-11.8l0,0c2.2-4.5,7.3-6.5,11.5-4.5
			l19.3,9.3C256.9,439.6,258.5,444.9,256.4,449.4L256.4,449.4z"/>
	</g>
</g>
</svg>
